<svg width="32" height="32" viewBox="0 0 30 30" xmlns="http://www.w3.org/2000/svg"><g><path fill="#74ecc8" d="M3.969 0H26.03A3.96 3.96 0 0 1 30 3.969V26.03A3.96 3.96 0 0 1 26.031 30H3.97A3.96 3.96 0 0 1 0 26.031V3.97A3.96 3.96 0 0 1 3.969 0z"/><path d="M12.985 25.183q-2.344 0-4.139-1.135-1.795-1.136-2.82-3.37Q5 18.407 5 15.073q0-4.981 2.161-7.619 2.198-2.637 5.97-2.637 1.393 0 2.528.403 1.136.366 2.015 1.062.916.66 1.538 1.575h.147l.476-2.674H22.4v15.312q0 1.135.44 1.611.44.44 1.062.44.293 0 .623-.073.33-.074.476-.11v2.344q-.183.11-.513.22t-.732.183q-.403.073-.806.073-1.356 0-2.271-.66-.88-.659-1.282-2.344h-.257q-.586.88-1.465 1.576-.88.659-2.051 1.062-1.172.366-2.638.366zm.66-2.674q2.014 0 3.223-.77 1.246-.768 1.795-2.38.55-1.612.55-4.103v-.22q0-3.662-1.246-5.604-1.209-1.941-4.359-1.941-2.674 0-3.993 1.978-1.282 1.941-1.282 5.64 0 3.664 1.356 5.532 1.355 1.868 3.956 1.868z" fill="#262626" aria-label="α"/></g></svg>
